<svg class="icon" width="200" height="200" viewBox="0 0 1024 1024" xmlns="http://www.w3.org/2000/svg"><path fill="#8a8a8a" d="M1010 657.8L878.6 526.1c-9-9.1-21.3-14.2-34.2-14.2H630c-29.8 0-54 24.1-54 53.8v402.5c0 29.7 24.2 53.8 54 53.8h340c29.8 0 54-24.1 54-53.8V691.6c0-12.6-5-24.8-14-33.8zM960 958H640V576h197.9L960 698.3V958zM691.7 704h91.9c17.7 0 32-14.3 32-32s-14.3-32-32-32h-91.9c-17.7 0-32 14.3-32 32s14.3 32 32 32zm-32 64c0 17.7 14.3 32 32 32h206.9c17.7 0 32-14.3 32-32s-14.3-32-32-32H691.7c-17.7 0-32 14.3-32 32zm238.9 64H691.7c-17.7 0-32 14.3-32 32s14.3 32 32 32h206.9c17.7 0 32-14.3 32-32s-14.4-32-32-32zM484 704h-68v-64h64.9c17.7 0 32-14.3 32-32s-14.3-32-32-32H100.8C80.5 576 64 559.5 64 539.2V164.7c0-20.3 16.5-36.8 36.8-36.8h566.5c20.3 0 36.8 16.5 36.8 36.8v253.8c0 17.7 14.3 32 32 32s32-14.3 32-32V164.7c0-55.6-45.2-100.8-100.8-100.8H100.8C45.2 64 0 109.2 0 164.7v374.5C0 594.8 45.2 640 100.8 640H352v64H224c-17.7 0-32 14.3-32 32s14.3 32 32 32h260c17.7 0 32-14.3 32-32s-14.3-32-32-32z"/></svg>